<?xml version="1.0" standalone="no"?><!DOCTYPE svg PUBLIC "-//W3C//DTD SVG 1.1//EN" "http://www.w3.org/Graphics/SVG/1.1/DTD/svg11.dtd"><svg class="icon" width="200px" height="198.07px" viewBox="0 0 1034 1024" version="1.1" xmlns="http://www.w3.org/2000/svg"><path fill="#cdcdcd" d="M817.344 919.68c-44.992 0-81.6-36.48-81.6-81.664 0-44.928 36.608-81.472 81.6-81.472s81.536 36.544 81.536 81.472c0.064 45.184-36.48 81.664-81.536 81.664z m0-125.568c-24.192 0-43.968 19.584-43.968 43.904 0 24.384 19.776 44.032 43.968 44.032 24.256 0 43.904-19.712 43.904-44.032 0-24.32-19.648-43.904-43.904-43.904zM449.28 919.68c-44.992 0-81.664-36.48-81.664-81.664 0-44.928 36.672-81.472 81.664-81.472 44.928 0 81.536 36.544 81.536 81.472 0 45.184-36.608 81.664-81.536 81.664z m0-125.568c-24.32 0-43.968 19.584-43.968 43.904 0 24.384 19.648 44.032 43.968 44.032 24.256 0 43.968-19.712 43.968-44.032-0.064-24.32-19.776-43.904-43.968-43.904zM892.992 732.544H310.784c-6.336 0-11.968-3.136-15.552-8.128-3.584-5.12-4.288-11.648-2.048-17.408l54.08-143.36-143.232-421.696H82.88c-10.496 0-18.88-8.448-18.88-18.816s8.384-18.816 18.88-18.816h134.656c8.064 0 15.232 5.12 17.792 12.8l149.696 440.832c1.408 4.096 1.408 8.576-0.192 12.672l-46.976 124.352h555.136c10.304 0 18.752 8.32 18.752 18.752 0 10.304-8.448 18.816-18.752 18.816z"  /><path fill="#cdcdcd" d="M836.352 582.656h-469.12c-10.368 0-18.752-8.32-18.752-18.688 0-10.496 8.384-18.944 18.752-18.944h455.296l92.864-290.048H260.096c-10.56 0-18.88-8.384-18.88-18.816 0-10.368 8.32-18.816 18.88-18.816H941.12c6.08 0 11.776 2.816 15.168 7.68 3.648 4.928 4.544 11.136 2.88 16.896L854.4 569.6c-2.56 7.936-9.856 13.056-18.048 13.056z"  /></svg>